<?xml version="1.0" standalone="no"?><!DOCTYPE svg PUBLIC "-//W3C//DTD SVG 1.1//EN" "http://www.w3.org/Graphics/SVG/1.1/DTD/svg11.dtd"><svg class="icon" width="200px" height="200.00px" viewBox="0 0 1024 1024" version="1.1" xmlns="http://www.w3.org/2000/svg"><path d="M512 32C246.4 32 32 246.4 32 512s214.4 480 480 480 480-214.4 480-480S777.6 32 512 32z m179.2 691.2c-32 32-153.6 3.2-275.2-118.4s-150.4-240-118.4-275.2c28.8-28.8 64-76.8 112-12.8 54.4 64 25.6 83.2-3.2 112-19.2 19.2 22.4 70.4 67.2 115.2 44.8 44.8 96 86.4 115.2 64 32-28.8 48-54.4 112-3.2 67.2 57.6 19.2 92.8-9.6 118.4z" fill="#D81E06" /></svg>